# xmcd
#
# Track frame offsets:
#	150
#	18864
#	32865
#	48069
#	68966
#	89041
#	106874
#	123084
#	142109
#	162442
#	176806
#
# Disc length: 2818 seconds
#
# Revision: 2
# Processed by: cddbd v1.5.2PL0 Copyright (c) Steve Scherf et al.
# Submitted via: EasyCDDAExtractor 9.0.0.1
#
DISCID=930b000b
DTITLE=Sveta - Ne nado bol'she
DYEAR=2005
DGENRE=Pop
TTITLE0=Ya zapru dver'
TTITLE1=Ne nado bol'she
TTITLE2=Noch'
TTITLE3=Ne nazyvaj
TTITLE4=Ty ne zvonish'
TTITLE5=A kak zhe lyubov'
TTITLE6=Mimo projti
TTITLE7=Nebo i more
TTITLE8=Tri, chetyre, pyat'
TTITLE9=Mesyac
TTITLE10=Svetit luna (Neomaster feat. Sveta)
EXTD=
EXTT0=
EXTT1=
EXTT2=
EXTT3=
EXTT4=
EXTT5=
EXTT6=
EXTT7=
EXTT8=
EXTT9=
EXTT10=
PLAYORDER=
